<svg xmlns="http://www.w3.org/2000/svg" width="1200" height="760" viewBox="0 0 1200 760" fill="none">
  <defs>
    <linearGradient id="paper" x1="0" y1="0" x2="1200" y2="760" gradientUnits="userSpaceOnUse">
      <stop stop-color="#FFFFFF"/>
      <stop offset="1" stop-color="#F8F6F2"/>
    </linearGradient>
    <linearGradient id="gold" x1="0" y1="0" x2="1" y2="1">
      <stop stop-color="#F4DDA6"/>
      <stop offset="0.45" stop-color="#D9B56A"/>
      <stop offset="1" stop-color="#A7782A"/>
    </linearGradient>
    <radialGradient id="stamp" cx="0" cy="0" r="1" gradientUnits="userSpaceOnUse" gradientTransform="translate(927 173) rotate(90) scale(86 86)">
      <stop stop-color="#F2D38E"/>
      <stop offset="1" stop-color="#AA792A"/>
    </radialGradient>
  </defs>
  <rect x="16" y="16" width="1168" height="728" rx="24" fill="url(#paper)" />
  <rect x="16" y="16" width="1168" height="728" rx="24" stroke="url(#gold)" stroke-width="4"/>
  <rect x="40" y="40" width="1120" height="680" rx="16" stroke="#D8BC86" stroke-width="1.5"/>

  <text x="82" y="118" font-family="Georgia, serif" font-size="26" fill="#7B612F">COCURITY CERTIFIED</text>
  <text x="82" y="176" font-family="Georgia, serif" font-size="56" font-weight="700" fill="#111827">Security Certification</text>
  <line x1="82" y1="195" x2="520" y2="195" stroke="#D4B373" stroke-width="3"/>

  <text x="82" y="255" font-family="Arial, sans-serif" font-size="21" fill="#334155">Certificate ID</text>
  <text x="82" y="285" font-family="Arial, sans-serif" font-size="29" font-weight="700" fill="#0F172A">LP-ABCD-EFGH</text>

  <text x="82" y="335" font-family="Arial, sans-serif" font-size="19" fill="#475569">Repository</text>
  <text x="82" y="362" font-family="Arial, sans-serif" font-size="23" font-weight="600" fill="#0F172A">github.com/example/service</text>

  <text x="82" y="412" font-family="Arial, sans-serif" font-size="19" fill="#475569">Certified Commit</text>
  <text x="82" y="439" font-family="Arial, sans-serif" font-size="23" font-weight="600" fill="#0F172A">a1b2c3d</text>

  <text x="82" y="489" font-family="Arial, sans-serif" font-size="19" fill="#475569">Issued At</text>
  <text x="82" y="516" font-family="Arial, sans-serif" font-size="23" font-weight="600" fill="#0F172A">2026-02-16T00:00:00Z</text>

  <rect x="82" y="560" width="300" height="54" rx="27" fill="#0F172A"/>
  <text x="118" y="594" font-family="Arial, sans-serif" font-size="24" font-weight="700" fill="#F8FAFC">VALID • UP-TO-DATE</text>

  <circle cx="927" cy="173" r="86" fill="url(#stamp)"/>
  <circle cx="927" cy="173" r="72" fill="none" stroke="#F9E4B3" stroke-width="3" stroke-dasharray="2 10"/>
  <text x="866" y="167" font-family="Georgia, serif" font-size="22" font-weight="700" fill="#FEF3C7">VERIFIED</text>
  <text x="875" y="196" font-family="Georgia, serif" font-size="18" fill="#FEF3C7">COCURITY</text>

  <rect x="834" y="432" width="232" height="232" rx="18" fill="#FFFFFF" stroke="#DABF8A" stroke-width="2"/>
  <g fill="#111827">
    <rect x="860" y="458" width="18" height="18"/>
    <rect x="878" y="458" width="18" height="18"/>
    <rect x="896" y="458" width="18" height="18"/>
    <rect x="932" y="458" width="18" height="18"/>
    <rect x="968" y="458" width="18" height="18"/>
    <rect x="986" y="458" width="18" height="18"/>

    <rect x="860" y="476" width="18" height="18"/>
    <rect x="896" y="476" width="18" height="18"/>
    <rect x="914" y="476" width="18" height="18"/>
    <rect x="950" y="476" width="18" height="18"/>
    <rect x="986" y="476" width="18" height="18"/>

    <rect x="860" y="494" width="18" height="18"/>
    <rect x="878" y="494" width="18" height="18"/>
    <rect x="914" y="494" width="18" height="18"/>
    <rect x="932" y="494" width="18" height="18"/>
    <rect x="968" y="494" width="18" height="18"/>
    <rect x="1004" y="494" width="18" height="18"/>

    <rect x="860" y="512" width="18" height="18"/>
    <rect x="896" y="512" width="18" height="18"/>
    <rect x="950" y="512" width="18" height="18"/>
    <rect x="968" y="512" width="18" height="18"/>
    <rect x="986" y="512" width="18" height="18"/>

    <rect x="878" y="530" width="18" height="18"/>
    <rect x="914" y="530" width="18" height="18"/>
    <rect x="932" y="530" width="18" height="18"/>
    <rect x="968" y="530" width="18" height="18"/>
    <rect x="1004" y="530" width="18" height="18"/>

    <rect x="860" y="548" width="18" height="18"/>
    <rect x="896" y="548" width="18" height="18"/>
    <rect x="914" y="548" width="18" height="18"/>
    <rect x="950" y="548" width="18" height="18"/>
    <rect x="986" y="548" width="18" height="18"/>

    <rect x="878" y="566" width="18" height="18"/>
    <rect x="932" y="566" width="18" height="18"/>
    <rect x="950" y="566" width="18" height="18"/>
    <rect x="968" y="566" width="18" height="18"/>
    <rect x="1004" y="566" width="18" height="18"/>

    <rect x="860" y="584" width="18" height="18"/>
    <rect x="878" y="584" width="18" height="18"/>
    <rect x="914" y="584" width="18" height="18"/>
    <rect x="950" y="584" width="18" height="18"/>
    <rect x="986" y="584" width="18" height="18"/>
  </g>
  <text x="886" y="692" font-family="Arial, sans-serif" font-size="18" fill="#6B7280">Verify QR</text>
</svg>
